<svg viewBox="0 0 240 126" preserveAspectRatio="xMidYMid slice" xmlns="http://www.w3.org/2000/svg">
  <defs>
    <pattern id="jbx-dots" width="3.2" height="3.2" patternUnits="userSpaceOnUse" patternTransform="rotate(45)">
      <circle cx="1.6" cy="1.6" r=".75" fill="#c6c6c9"/>
    </pattern>
    <linearGradient id="jbx-fade" x1="1" y1="0" x2="0" y2="1">
      <stop offset=".45" stop-color="#fff" stop-opacity="0"/>
      <stop offset="1" stop-color="#fff" stop-opacity="1"/>
    </linearGradient>
    <mask id="jbx-dots-mask"><rect width="240" height="126" fill="url(#jbx-fade)"/></mask>
  </defs>
  <rect width="240" height="126" fill="#141416"/>
  <path class="poster-rays" d="M146 58L466.0 58.0L446.7 167.4ZM146 58L391.1 263.7L306.0 335.1ZM146 58L201.6 373.1L90.4 373.1ZM146 58L-14.0 335.1L-99.1 263.7ZM146 58L-154.7 167.4L-174.0 58.0ZM146 58L-154.7 -51.4L-99.1 -147.7ZM146 58L-14.0 -219.1L90.4 -257.1ZM146 58L201.6 -257.1L306.0 -219.1ZM146 58L391.1 -147.7L446.7 -51.4Z" fill="#3a0b0a"/>
  <rect width="240" height="126" fill="url(#jbx-dots)" mask="url(#jbx-dots-mask)" opacity=".22"/>
  <circle cx="146" cy="58" r="46" fill="#e20203"/>
  <path d="M100 58 A46 46 0 0 0 192 58 Z" fill="#b10203"/>
  <path d="M0 126 L0 98 L62 126 Z" fill="#e20203"/>
  <g class="poster-waves" fill="none" stroke="#e20203" stroke-width="4.2" stroke-linecap="butt">
    <path d="M104.1 100.0 A16 16 0 0 1 104.1 84.0"/>
    <path d="M95.9 107.5 A27 27 0 0 1 95.9 76.5"/>
    <path d="M88.5 115.9 A38 38 0 0 1 88.5 68.1" stroke="#c6c6c9"/>
  </g>
  <g class="poster-notes">
    <g transform="translate(46 46) rotate(-14)"><ellipse cx="0" cy="0" rx="4.4" ry="3.1" transform="rotate(-22)" fill="#e2e2e4"/><rect x="3" y="-17" width="1.7" height="17" fill="#e2e2e4"/><path d="M4.7 -17 C10 -14 12 -9.5 9 -4.5 C9.6 -9 7.6 -11 4.7 -12 Z" fill="#e2e2e4"/></g>
    <g transform="translate(18 74) rotate(-10)"><ellipse cx="0" cy="0" rx="4" ry="2.9" transform="rotate(-22)" fill="#e20203"/><ellipse cx="13" cy="-3" rx="4" ry="2.9" transform="rotate(-22 13 -3)" fill="#e20203"/><rect x="2.8" y="-16" width="1.6" height="16" fill="#e20203"/><rect x="15.8" y="-19" width="1.6" height="16" fill="#e20203"/><path d="M2.8 -16 L17.4 -19 L17.4 -15.4 L2.8 -12.4 Z" fill="#e20203"/></g>
    <g transform="translate(70 26) rotate(8)"><ellipse cx="0" cy="0" rx="4.4" ry="3.1" transform="rotate(-22)" fill="#e20203"/><rect x="3" y="-17" width="1.7" height="17" fill="#e20203"/><path d="M4.7 -17 C10 -14 12 -9.5 9 -4.5 C9.6 -9 7.6 -11 4.7 -12 Z" fill="#e20203"/></g>
  </g>
  <g class="poster-jukebox"><g transform="translate(154 127) rotate(-7)">
    <path d="M-34 8 V-74 A34 34 0 0 1 34 -74 V8 Z" fill="#0f0f10" stroke="#0f0f10" stroke-width="3"/>
    <path d="M-28 -6 V-74 A28 28 0 0 1 28 -74 V-6" fill="none" stroke="#c6c6c9" stroke-width="5.5"/>
    <path d="M-23.5 -6 V-74 A23.5 23.5 0 0 1 23.5 -74 V-6" fill="none" stroke="#e20203" stroke-width="1.4"/>
    <rect x="-31.5" y="-74" width="2.2" height="66" fill="#f4f4f5" opacity=".14"/>
    <path d="M-20 -44 V-74 A20 20 0 0 1 20 -74 V-44 Z" fill="#c6c6c9"/>
    <path d="M-20 -59 V-74 A20 20 0 0 1 20 -74 V-59 Z" fill="#e2e2e4"/>
    <circle cx="0" cy="-70" r="14.5" fill="#141416"/>
    <circle cx="0" cy="-70" r="11.2" fill="none" stroke="#3b3b3f" stroke-width=".8"/>
    <circle cx="0" cy="-70" r="8.2" fill="none" stroke="#3b3b3f" stroke-width=".8"/>
    <circle cx="0" cy="-70" r="5" fill="#e20203"/>
    <circle cx="0" cy="-70" r="1.1" fill="#e2e2e4"/>
    <path d="M16 -86 L7 -66" stroke="#0f0f10" stroke-width="2.2" stroke-linecap="round"/>
    <circle cx="16" cy="-86" r="2.4" fill="#0f0f10"/>
    <rect x="-20" y="-41" width="40" height="7" fill="#6e6e73"/>
    <rect x="-17.5" y="-39.5" width="3.2" height="3" fill="#e2e2e4"/><rect x="-12.1" y="-39.5" width="3.2" height="3" fill="#e2e2e4"/><rect x="-6.699999999999999" y="-39.5" width="3.2" height="3" fill="#e2e2e4"/><rect x="-1.2999999999999972" y="-39.5" width="3.2" height="3" fill="#e2e2e4"/><rect x="4.100000000000001" y="-39.5" width="3.2" height="3" fill="#e2e2e4"/><rect x="9.5" y="-39.5" width="3.2" height="3" fill="#e2e2e4"/><rect x="14.900000000000006" y="-39.5" width="3.2" height="3" fill="#e2e2e4"/>
    <rect x="-20" y="-31" width="40" height="24" fill="#e20203"/>
    <rect x="-17" y="-29" width="2.6" height="20" fill="#0f0f10"/><rect x="-10.6" y="-29" width="2.6" height="20" fill="#0f0f10"/><rect x="-4.199999999999999" y="-29" width="2.6" height="20" fill="#0f0f10"/><rect x="2.200000000000003" y="-29" width="2.6" height="20" fill="#0f0f10"/><rect x="8.600000000000001" y="-29" width="2.6" height="20" fill="#0f0f10"/><rect x="15" y="-29" width="2.6" height="20" fill="#0f0f10"/>
    <rect x="-37" y="-5" width="74" height="6" fill="#a8a8ac"/>
  </g></g>
</svg>